<svg width="153" height="24" viewBox="0 0 153 24" fill="none" xmlns="http://www.w3.org/2000/svg">
<path d="M9.39 23L0.09 2H2.49L11.19 21.77H9.87L18.63 2H20.88L11.58 23H9.39ZM25.7899 23V7.25H27.9199V23H25.7899ZM26.8699 3.77C26.4299 3.77 26.0599 3.62 25.7599 3.32C25.4599 3.02 25.3099 2.66 25.3099 2.24C25.3099 1.82 25.4599 1.47 25.7599 1.19C26.0599 0.889999 26.4299 0.739999 26.8699 0.739999C27.3099 0.739999 27.6799 0.879999 27.9799 1.16C28.2799 1.44 28.4299 1.79 28.4299 2.21C28.4299 2.65 28.2799 3.02 27.9799 3.32C27.6999 3.62 27.3299 3.77 26.8699 3.77ZM44.3766 23.15C42.9966 23.15 41.7566 22.84 40.6566 22.22C39.5566 21.58 38.6866 20.66 38.0466 19.46C37.4066 18.26 37.0866 16.81 37.0866 15.11C37.0866 13.39 37.4066 11.94 38.0466 10.76C38.7066 9.56 39.5866 8.65 40.6866 8.03C41.7866 7.41 43.0166 7.1 44.3766 7.1C45.8766 7.1 47.2166 7.44 48.3966 8.12C49.5966 8.78 50.5366 9.71 51.2166 10.91C51.8966 12.11 52.2366 13.51 52.2366 15.11C52.2366 16.69 51.8966 18.09 51.2166 19.31C50.5366 20.51 49.5966 21.45 48.3966 22.13C47.2166 22.81 45.8766 23.15 44.3766 23.15ZM36.2466 23V0.739999H38.3766V11.9L38.0766 15.08L38.2866 18.26V23H36.2466ZM44.2266 21.26C45.3466 21.26 46.3466 21.01 47.2266 20.51C48.1066 19.99 48.8066 19.27 49.3266 18.35C49.8466 17.41 50.1066 16.33 50.1066 15.11C50.1066 13.87 49.8466 12.79 49.3266 11.87C48.8066 10.95 48.1066 10.24 47.2266 9.74C46.3466 9.22 45.3466 8.96 44.2266 8.96C43.1066 8.96 42.0966 9.22 41.1966 9.74C40.3166 10.24 39.6166 10.95 39.0966 11.87C38.5966 12.79 38.3466 13.87 38.3466 15.11C38.3466 16.33 38.5966 17.41 39.0966 18.35C39.6166 19.27 40.3166 19.99 41.1966 20.51C42.0966 21.01 43.1066 21.26 44.2266 21.26ZM65.6686 23.15C64.0286 23.15 62.5886 22.81 61.3486 22.13C60.1086 21.43 59.1386 20.48 58.4386 19.28C57.7386 18.06 57.3886 16.67 57.3886 15.11C57.3886 13.55 57.7186 12.17 58.3786 10.97C59.0586 9.77 59.9786 8.83 61.1386 8.15C62.3186 7.45 63.6386 7.1 65.0986 7.1C66.5786 7.1 67.8886 7.44 69.0286 8.12C70.1886 8.78 71.0986 9.72 71.7586 10.94C72.4186 12.14 72.7486 13.53 72.7486 15.11C72.7486 15.21 72.7386 15.32 72.7186 15.44C72.7186 15.54 72.7186 15.65 72.7186 15.77H59.0086V14.18H71.5786L70.7386 14.81C70.7386 13.67 70.4886 12.66 69.9886 11.78C69.5086 10.88 68.8486 10.18 68.0086 9.68C67.1686 9.18 66.1986 8.93 65.0986 8.93C64.0186 8.93 63.0486 9.18 62.1886 9.68C61.3286 10.18 60.6586 10.88 60.1786 11.78C59.6986 12.68 59.4586 13.71 59.4586 14.87V15.2C59.4586 16.4 59.7186 17.46 60.2386 18.38C60.7786 19.28 61.5186 19.99 62.4586 20.51C63.4186 21.01 64.5086 21.26 65.7286 21.26C66.6886 21.26 67.5786 21.09 68.3986 20.75C69.2386 20.41 69.9586 19.89 70.5586 19.19L71.7586 20.57C71.0586 21.41 70.1786 22.05 69.1186 22.49C68.0786 22.93 66.9286 23.15 65.6686 23.15ZM85.7241 23.18C84.1641 23.18 82.6641 22.93 81.2241 22.43C79.8041 21.91 78.7041 21.25 77.9241 20.45L78.7941 18.74C79.5341 19.46 80.5241 20.07 81.7641 20.57C83.0241 21.05 84.3441 21.29 85.7241 21.29C87.0441 21.29 88.1141 21.13 88.9341 20.81C89.7741 20.47 90.3841 20.02 90.7641 19.46C91.1641 18.9 91.3641 18.28 91.3641 17.6C91.3641 16.78 91.1241 16.12 90.6441 15.62C90.1841 15.12 89.5741 14.73 88.8141 14.45C88.0541 14.15 87.2141 13.89 86.2941 13.67C85.3741 13.45 84.4541 13.22 83.5341 12.98C82.6141 12.72 81.7641 12.38 80.9841 11.96C80.2241 11.54 79.6041 10.99 79.1241 10.31C78.6641 9.61 78.4341 8.7 78.4341 7.58C78.4341 6.54 78.7041 5.59 79.2441 4.73C79.8041 3.85 80.6541 3.15 81.7941 2.63C82.9341 2.09 84.3941 1.82 86.1741 1.82C87.3541 1.82 88.5241 1.99 89.6841 2.33C90.8441 2.65 91.8441 3.1 92.6841 3.68L91.9341 5.45C91.0341 4.85 90.0741 4.41 89.0541 4.13C88.0541 3.85 87.0841 3.71 86.1441 3.71C84.8841 3.71 83.8441 3.88 83.0241 4.22C82.2041 4.56 81.5941 5.02 81.1941 5.6C80.8141 6.16 80.6241 6.8 80.6241 7.52C80.6241 8.34 80.8541 9 81.3141 9.5C81.7941 10 82.4141 10.39 83.1741 10.67C83.9541 10.95 84.8041 11.2 85.7241 11.42C86.6441 11.64 87.5541 11.88 88.4541 12.14C89.3741 12.4 90.2141 12.74 90.9741 13.16C91.7541 13.56 92.3741 14.1 92.8341 14.78C93.3141 15.46 93.5541 16.35 93.5541 17.45C93.5541 18.47 93.2741 19.42 92.7141 20.3C92.1541 21.16 91.2941 21.86 90.1341 22.4C88.9941 22.92 87.5241 23.18 85.7241 23.18ZM108.381 7.1C109.661 7.1 110.781 7.35 111.741 7.85C112.721 8.33 113.481 9.07 114.021 10.07C114.581 11.07 114.861 12.33 114.861 13.85V23H112.731V14.06C112.731 12.4 112.311 11.15 111.471 10.31C110.651 9.45 109.491 9.02 107.991 9.02C106.871 9.02 105.891 9.25 105.051 9.71C104.231 10.15 103.591 10.8 103.131 11.66C102.691 12.5 102.471 13.52 102.471 14.72V23H100.341V0.739999H102.471V11.57L102.051 10.76C102.551 9.62 103.351 8.73 104.451 8.09C105.551 7.43 106.861 7.1 108.381 7.1ZM129.435 23.15C127.915 23.15 126.545 22.81 125.325 22.13C124.125 21.43 123.175 20.48 122.475 19.28C121.775 18.06 121.425 16.67 121.425 15.11C121.425 13.53 121.775 12.14 122.475 10.94C123.175 9.74 124.125 8.8 125.325 8.12C126.525 7.44 127.895 7.1 129.435 7.1C130.995 7.1 132.375 7.44 133.575 8.12C134.795 8.8 135.745 9.74 136.425 10.94C137.125 12.14 137.475 13.53 137.475 15.11C137.475 16.67 137.125 18.06 136.425 19.28C135.745 20.48 134.795 21.43 133.575 22.13C132.355 22.81 130.975 23.15 129.435 23.15ZM129.435 21.26C130.575 21.26 131.585 21.01 132.465 20.51C133.345 19.99 134.035 19.27 134.535 18.35C135.055 17.41 135.315 16.33 135.315 15.11C135.315 13.87 135.055 12.79 134.535 11.87C134.035 10.95 133.345 10.24 132.465 9.74C131.585 9.22 130.585 8.96 129.465 8.96C128.345 8.96 127.345 9.22 126.465 9.74C125.585 10.24 124.885 10.95 124.365 11.87C123.845 12.79 123.585 13.87 123.585 15.11C123.585 16.33 123.845 17.41 124.365 18.35C124.885 19.27 125.585 19.99 126.465 20.51C127.345 21.01 128.335 21.26 129.435 21.26ZM149.203 23.15C147.723 23.15 146.583 22.75 145.783 21.95C144.983 21.15 144.583 20.02 144.583 18.56V3.77H146.713V18.44C146.713 19.36 146.943 20.07 147.403 20.57C147.883 21.07 148.563 21.32 149.443 21.32C150.383 21.32 151.163 21.05 151.783 20.51L152.533 22.04C152.113 22.42 151.603 22.7 151.003 22.88C150.423 23.06 149.823 23.15 149.203 23.15ZM141.763 9.02V7.25H151.513V9.02H141.763Z" fill="url(#paint0_linear_34_80)"/>
<defs>
<linearGradient id="paint0_linear_34_80" x1="21.5909" y1="31" x2="395.28" y2="31" gradientUnits="userSpaceOnUse">
<stop stop-color="#38B6FF"/>
<stop offset="0.453125" stop-color="white"/>
</linearGradient>
</defs>
</svg>
