<svg width="348" height="53" viewBox="0 0 348 53" fill="none" xmlns="http://www.w3.org/2000/svg">
<path d="M21.91 52L0.21 3H5.81L26.11 49.13H23.03L43.47 3H48.72L27.02 52H21.91ZM60.1765 52V15.25H65.1465V52H60.1765ZM62.6965 7.13C61.6698 7.13 60.8065 6.78 60.1065 6.08C59.4065 5.38 59.0565 4.54 59.0565 3.56C59.0565 2.58 59.4065 1.76333 60.1065 1.11C60.8065 0.409997 61.6698 0.059997 62.6965 0.059997C63.7231 0.059997 64.5865 0.386664 65.2865 1.04C65.9865 1.69333 66.3365 2.51 66.3365 3.49C66.3365 4.51667 65.9865 5.38 65.2865 6.08C64.6331 6.78 63.7698 7.13 62.6965 7.13ZM103.545 52.35C100.325 52.35 97.432 51.6267 94.8653 50.18C92.2986 48.6867 90.2686 46.54 88.7753 43.74C87.282 40.94 86.5353 37.5567 86.5353 33.59C86.5353 29.5767 87.282 26.1933 88.7753 23.44C90.3153 20.64 92.3686 18.5167 94.9353 17.07C97.502 15.6233 100.372 14.9 103.545 14.9C107.045 14.9 110.172 15.6933 112.925 17.28C115.725 18.82 117.919 20.99 119.505 23.79C121.092 26.59 121.885 29.8567 121.885 33.59C121.885 37.2767 121.092 40.5433 119.505 43.39C117.919 46.19 115.725 48.3833 112.925 49.97C110.172 51.5567 107.045 52.35 103.545 52.35ZM84.5753 52V0.059997H89.5453V26.1L88.8453 33.52L89.3353 40.94V52H84.5753ZM103.195 47.94C105.809 47.94 108.142 47.3567 110.195 46.19C112.249 44.9767 113.882 43.2967 115.095 41.15C116.309 38.9567 116.915 36.4367 116.915 33.59C116.915 30.6967 116.309 28.1767 115.095 26.03C113.882 23.8833 112.249 22.2267 110.195 21.06C108.142 19.8467 105.809 19.24 103.195 19.24C100.582 19.24 98.2253 19.8467 96.1253 21.06C94.072 22.2267 92.4386 23.8833 91.2253 26.03C90.0586 28.1767 89.4753 30.6967 89.4753 33.59C89.4753 36.4367 90.0586 38.9567 91.2253 41.15C92.4386 43.2967 94.072 44.9767 96.1253 46.19C98.2253 47.3567 100.582 47.94 103.195 47.94ZM153.227 52.35C149.4 52.35 146.04 51.5567 143.147 49.97C140.253 48.3367 137.99 46.12 136.357 43.32C134.723 40.4733 133.907 37.23 133.907 33.59C133.907 29.95 134.677 26.73 136.217 23.93C137.803 21.13 139.95 18.9367 142.657 17.35C145.41 15.7167 148.49 14.9 151.897 14.9C155.35 14.9 158.407 15.6933 161.067 17.28C163.773 18.82 165.897 21.0133 167.437 23.86C168.977 26.66 169.747 29.9033 169.747 33.59C169.747 33.8233 169.723 34.08 169.677 34.36C169.677 34.5933 169.677 34.85 169.677 35.13H137.687V31.42H167.017L165.057 32.89C165.057 30.23 164.473 27.8733 163.307 25.82C162.187 23.72 160.647 22.0867 158.687 20.92C156.727 19.7533 154.463 19.17 151.897 19.17C149.377 19.17 147.113 19.7533 145.107 20.92C143.1 22.0867 141.537 23.72 140.417 25.82C139.297 27.92 138.737 30.3233 138.737 33.03V33.8C138.737 36.6 139.343 39.0733 140.557 41.22C141.817 43.32 143.543 44.9767 145.737 46.19C147.977 47.3567 150.52 47.94 153.367 47.94C155.607 47.94 157.683 47.5433 159.597 46.75C161.557 45.9567 163.237 44.7433 164.637 43.11L167.437 46.33C165.803 48.29 163.75 49.7833 161.277 50.81C158.85 51.8367 156.167 52.35 153.227 52.35ZM195.333 52.35C192.299 52.35 189.429 51.93 186.723 51.09C184.016 50.2033 181.893 49.1067 180.353 47.8L182.593 43.88C184.086 45 185.999 45.98 188.333 46.82C190.666 47.6133 193.116 48.01 195.683 48.01C199.183 48.01 201.703 47.4733 203.243 46.4C204.783 45.28 205.553 43.81 205.553 41.99C205.553 40.6367 205.109 39.5867 204.223 38.84C203.383 38.0467 202.263 37.4633 200.863 37.09C199.463 36.67 197.899 36.32 196.173 36.04C194.446 35.76 192.719 35.4333 190.993 35.06C189.313 34.6867 187.773 34.15 186.373 33.45C184.973 32.7033 183.829 31.7 182.943 30.44C182.103 29.18 181.683 27.5 181.683 25.4C181.683 23.3933 182.243 21.5967 183.363 20.01C184.483 18.4233 186.116 17.1867 188.263 16.3C190.456 15.3667 193.116 14.9 196.243 14.9C198.623 14.9 201.003 15.2267 203.383 15.88C205.763 16.4867 207.723 17.3033 209.263 18.33L207.093 22.32C205.459 21.2 203.709 20.4067 201.843 19.94C199.976 19.4267 198.109 19.17 196.243 19.17C192.929 19.17 190.479 19.7533 188.893 20.92C187.353 22.04 186.583 23.4867 186.583 25.26C186.583 26.66 187.003 27.7567 187.843 28.55C188.729 29.3433 189.873 29.9733 191.273 30.44C192.719 30.86 194.283 31.21 195.963 31.49C197.689 31.77 199.393 32.12 201.073 32.54C202.799 32.9133 204.363 33.45 205.763 34.15C207.209 34.8033 208.353 35.76 209.193 37.02C210.079 38.2333 210.523 39.8433 210.523 41.85C210.523 43.9967 209.916 45.8633 208.703 47.45C207.536 48.99 205.809 50.2033 203.523 51.09C201.283 51.93 198.553 52.35 195.333 52.35ZM244.003 14.9C246.989 14.9 249.603 15.4833 251.843 16.65C254.129 17.77 255.903 19.4967 257.163 21.83C258.469 24.1633 259.123 27.1033 259.123 30.65V52H254.153V31.14C254.153 27.2667 253.173 24.35 251.213 22.39C249.299 20.3833 246.593 19.38 243.093 19.38C240.479 19.38 238.193 19.9167 236.233 20.99C234.319 22.0167 232.826 23.5333 231.753 25.54C230.726 27.5 230.213 29.88 230.213 32.68V52H225.243V0.059997H230.213V25.33L229.233 23.44C230.399 20.78 232.266 18.7033 234.833 17.21C237.399 15.67 240.456 14.9 244.003 14.9ZM293.127 52.35C289.581 52.35 286.384 51.5567 283.537 49.97C280.737 48.3367 278.521 46.12 276.887 43.32C275.254 40.4733 274.437 37.23 274.437 33.59C274.437 29.9033 275.254 26.66 276.887 23.86C278.521 21.06 280.737 18.8667 283.537 17.28C286.337 15.6933 289.534 14.9 293.127 14.9C296.767 14.9 299.987 15.6933 302.787 17.28C305.634 18.8667 307.851 21.06 309.437 23.86C311.071 26.66 311.887 29.9033 311.887 33.59C311.887 37.23 311.071 40.4733 309.437 43.32C307.851 46.12 305.634 48.3367 302.787 49.97C299.941 51.5567 296.721 52.35 293.127 52.35ZM293.127 47.94C295.787 47.94 298.144 47.3567 300.197 46.19C302.251 44.9767 303.861 43.2967 305.027 41.15C306.241 38.9567 306.847 36.4367 306.847 33.59C306.847 30.6967 306.241 28.1767 305.027 26.03C303.861 23.8833 302.251 22.2267 300.197 21.06C298.144 19.8467 295.811 19.24 293.197 19.24C290.584 19.24 288.251 19.8467 286.197 21.06C284.144 22.2267 282.511 23.8833 281.297 26.03C280.084 28.1767 279.477 30.6967 279.477 33.59C279.477 36.4367 280.084 38.9567 281.297 41.15C282.511 43.2967 284.144 44.9767 286.197 46.19C288.251 47.3567 290.561 47.94 293.127 47.94ZM339.254 52.35C335.801 52.35 333.141 51.4167 331.274 49.55C329.407 47.6833 328.474 45.0467 328.474 41.64V7.13H333.444V41.36C333.444 43.5067 333.981 45.1633 335.054 46.33C336.174 47.4967 337.761 48.08 339.814 48.08C342.007 48.08 343.827 47.45 345.274 46.19L347.024 49.76C346.044 50.6467 344.854 51.3 343.454 51.72C342.101 52.14 340.701 52.35 339.254 52.35ZM321.894 19.38V15.25H344.644V19.38H321.894Z" fill="url(#paint0_linear_8_46)"/>
<defs>
<linearGradient id="paint0_linear_8_46" x1="21.5909" y1="69" x2="395.28" y2="69" gradientUnits="userSpaceOnUse">
<stop stop-color="#38B6FF"/>
<stop offset="0.927083"/>
</linearGradient>
</defs>
</svg>
